<svg xmlns="http://www.w3.org/2000/svg" width="1200" height="554" viewBox="0 0 1200 554" role="img" aria-labelledby="title desc"><title id="title">Documented technology stack</title><desc id="desc">Twelve technology cards. Deployment and validation scope are documented in the academic report.</desc><defs><linearGradient id="bg" x2="1" y2="1"><stop stop-color="#0b0f17"/><stop offset="1" stop-color="#172236"/></linearGradient><linearGradient id="accent"><stop stop-color="#22d3ee"/><stop offset="1" stop-color="#a78bfa"/></linearGradient></defs><rect x="1" y="1" width="1198" height="552" rx="20" fill="url(#bg)" stroke="#2e3b53"/><rect x="24" y="22" width="372" height="112" rx="12" fill="#1a263b" stroke="#32435c"/><rect x="38" y="51" width="47" height="47" rx="9" fill="#123a4c"/><text x="47" y="81" font-family="DejaVu Sans,Arial,sans-serif" font-size="21" font-weight="700" fill="#22d3ee">PY</text><text x="99" y="64" font-family="DejaVu Sans,Arial,sans-serif" font-size="19" font-weight="700" fill="#e5e7eb">Python 3.11</text><text x="99" y="94" font-family="DejaVu Sans,Arial,sans-serif" font-size="16" font-weight="400" fill="#a7b8cf">Async backend agents</text><rect x="414" y="22" width="372" height="112" rx="12" fill="#1a263b" stroke="#32435c"/><rect x="428" y="51" width="47" height="47" rx="9" fill="#123a4c"/><text x="437" y="81" font-family="DejaVu Sans,Arial,sans-serif" font-size="21" font-weight="700" fill="#22d3ee">LG</text><text x="489" y="64" font-family="DejaVu Sans,Arial,sans-serif" font-size="19" font-weight="700" fill="#e5e7eb">LangGraph / LangChain</text><text x="489" y="94" font-family="DejaVu Sans,Arial,sans-serif" font-size="16" font-weight="400" fill="#a7b8cf">State graph and orchestration</text><rect x="804" y="22" width="372" height="112" rx="12" fill="#1a263b" stroke="#32435c"/><rect x="818" y="51" width="47" height="47" rx="9" fill="#123a4c"/><text x="827" y="81" font-family="DejaVu Sans,Arial,sans-serif" font-size="21" font-weight="700" fill="#22d3ee">FA</text><text x="879" y="64" font-family="DejaVu Sans,Arial,sans-serif" font-size="19" font-weight="700" fill="#e5e7eb">FastAPI / Uvicorn</text><text x="879" y="94" font-family="DejaVu Sans,Arial,sans-serif" font-size="16" font-weight="400" fill="#a7b8cf">API gateway and SSE</text><rect x="24" y="152" width="372" height="112" rx="12" fill="#1a263b" stroke="#32435c"/><rect x="38" y="181" width="47" height="47" rx="9" fill="#123a4c"/><text x="47" y="211" font-family="DejaVu Sans,Arial,sans-serif" font-size="21" font-weight="700" fill="#22d3ee">CH</text><text x="99" y="194" font-family="DejaVu Sans,Arial,sans-serif" font-size="19" font-weight="700" fill="#e5e7eb">ChromaDB</text><text x="99" y="224" font-family="DejaVu Sans,Arial,sans-serif" font-size="16" font-weight="400" fill="#a7b8cf">Documentation vector store</text><rect x="414" y="152" width="372" height="112" rx="12" fill="#1a263b" stroke="#32435c"/><rect x="428" y="181" width="47" height="47" rx="9" fill="#123a4c"/><text x="437" y="211" font-family="DejaVu Sans,Arial,sans-serif" font-size="21" font-weight="700" fill="#22d3ee">ST</text><text x="489" y="194" font-family="DejaVu Sans,Arial,sans-serif" font-size="19" font-weight="700" fill="#e5e7eb">Sentence Transformers</text><text x="489" y="224" font-family="DejaVu Sans,Arial,sans-serif" font-size="16" font-weight="400" fill="#a7b8cf">all-MiniLM-L6-v2 embeddings</text><rect x="804" y="152" width="372" height="112" rx="12" fill="#1a263b" stroke="#32435c"/><rect x="818" y="181" width="47" height="47" rx="9" fill="#123a4c"/><text x="827" y="211" font-family="DejaVu Sans,Arial,sans-serif" font-size="21" font-weight="700" fill="#22d3ee">NI</text><text x="879" y="194" font-family="DejaVu Sans,Arial,sans-serif" font-size="19" font-weight="700" fill="#e5e7eb">NVIDIA NIM</text><text x="879" y="224" font-family="DejaVu Sans,Arial,sans-serif" font-size="16" font-weight="400" fill="#a7b8cf">Default model provider</text><rect x="24" y="282" width="372" height="112" rx="12" fill="#1a263b" stroke="#32435c"/><rect x="38" y="311" width="47" height="47" rx="9" fill="#123a4c"/><text x="47" y="341" font-family="DejaVu Sans,Arial,sans-serif" font-size="21" font-weight="700" fill="#22d3ee">RE</text><text x="99" y="324" font-family="DejaVu Sans,Arial,sans-serif" font-size="19" font-weight="700" fill="#e5e7eb">Redis</text><text x="99" y="354" font-family="DejaVu Sans,Arial,sans-serif" font-size="16" font-weight="400" fill="#a7b8cf">Cache, sessions and pub/sub</text><rect x="414" y="282" width="372" height="112" rx="12" fill="#1a263b" stroke="#32435c"/><rect x="428" y="311" width="47" height="47" rx="9" fill="#123a4c"/><text x="437" y="341" font-family="DejaVu Sans,Arial,sans-serif" font-size="21" font-weight="700" fill="#22d3ee">OW</text><text x="489" y="324" font-family="DejaVu Sans,Arial,sans-serif" font-size="19" font-weight="700" fill="#e5e7eb">Odoo 19 / OWL</text><text x="489" y="354" font-family="DejaVu Sans,Arial,sans-serif" font-size="16" font-weight="400" fill="#a7b8cf">Native assistant interface</text><rect x="804" y="282" width="372" height="112" rx="12" fill="#1a263b" stroke="#32435c"/><rect x="818" y="311" width="47" height="47" rx="9" fill="#123a4c"/><text x="827" y="341" font-family="DejaVu Sans,Arial,sans-serif" font-size="21" font-weight="700" fill="#22d3ee">SS</text><text x="879" y="324" font-family="DejaVu Sans,Arial,sans-serif" font-size="19" font-weight="700" fill="#e5e7eb">SSE / Web Speech API</text><text x="879" y="354" font-family="DejaVu Sans,Arial,sans-serif" font-size="16" font-weight="400" fill="#a7b8cf">Streaming and voice interaction</text><rect x="24" y="412" width="372" height="112" rx="12" fill="#1a263b" stroke="#32435c"/><rect x="38" y="441" width="47" height="47" rx="9" fill="#123a4c"/><text x="47" y="471" font-family="DejaVu Sans,Arial,sans-serif" font-size="21" font-weight="700" fill="#22d3ee">CB</text><text x="99" y="454" font-family="DejaVu Sans,Arial,sans-serif" font-size="19" font-weight="700" fill="#e5e7eb">Circuit breaker</text><text x="99" y="484" font-family="DejaVu Sans,Arial,sans-serif" font-size="16" font-weight="400" fill="#a7b8cf">Multi-provider resilience</text><rect x="414" y="412" width="372" height="112" rx="12" fill="#1a263b" stroke="#32435c"/><rect x="428" y="441" width="47" height="47" rx="9" fill="#123a4c"/><text x="437" y="471" font-family="DejaVu Sans,Arial,sans-serif" font-size="21" font-weight="700" fill="#22d3ee">DC</text><text x="489" y="454" font-family="DejaVu Sans,Arial,sans-serif" font-size="19" font-weight="700" fill="#e5e7eb">Docker / Kubernetes</text><text x="489" y="484" font-family="DejaVu Sans,Arial,sans-serif" font-size="16" font-weight="400" fill="#a7b8cf">Deployment stack in report</text><rect x="804" y="412" width="372" height="112" rx="12" fill="#1a263b" stroke="#32435c"/><rect x="818" y="441" width="47" height="47" rx="9" fill="#123a4c"/><text x="827" y="471" font-family="DejaVu Sans,Arial,sans-serif" font-size="21" font-weight="700" fill="#22d3ee">QA</text><text x="879" y="454" font-family="DejaVu Sans,Arial,sans-serif" font-size="19" font-weight="700" fill="#e5e7eb">pytest / Playwright / CI</text><text x="879" y="484" font-family="DejaVu Sans,Arial,sans-serif" font-size="16" font-weight="400" fill="#a7b8cf">Reported validation stack</text></svg>
